<svg xmlns="http://www.w3.org/2000/svg" viewBox="0 0 64 64"><path data-name="layer3" d="M55.647 28.672a17.505 17.505 0 0 0 .271-3.073c0-11.929-12.088-21.6-27-21.6s-27 9.671-27 21.6c0 6.068 3.133 11.55 8.17 15.474L4 53l17.534-6.625a33.339 33.339 0 0 0 7.385.825 34.138 34.138 0 0 0 3.545-.185A24.05 24.05 0 0 0 36.933 46l.846-.783L54.975 28z" fill="#a5e4f4"></path><path data-name="layer2" fill="#fc9" d="M30 60l11-4-7-7-4 11z"></path><path data-name="layer1" fill="#f26161" d="M55.647 28.672L54.975 28 34 49l7 7 21-20.975-6.353-6.353z"></path><path data-name="opacity" fill="#000064" opacity=".15" d="M37.492 52.502l-3.496-3.496L30 59.994l7.492-7.492zm-.004-.014l20.988-20.987-2.829-2.829-.672-.672L34 49l3.488 3.488z"></path></svg>