<svg xmlns="http://www.w3.org/2000/svg" viewBox="0 0 64 64"><path data-name="layer1" fill="#71c3f3" d="M8.004 38.007h48v15.995h-48zM56 6a4 4 0 0 0-4-4H12a4 4 0 0 0-4 4v10.006h48z"></path><path data-name="layer5" fill="#8adfff" d="M10.004 16.006h44v22.001h-44z"></path><path data-name="layer4" d="M20 54v6a2 2 0 0 1-2 2h-6a2 2 0 0 1-2-2v-6zm34 0v6a2 2 0 0 1-2 2h-6a2 2 0 0 1-2-2v-6z" fill="#7b8baf"></path><path data-name="layer3" d="M34.937 10h-5.878a1 1 0 0 1 0-2h5.879a1 1 0 0 1 0 2z" fill="#46b1f0"></path><rect data-name="layer2" x="15.059" y="44" width="7.879" height="4" rx="1" ry="1" fill="#e6edf7"></rect><rect data-name="layer2" x="41.119" y="44" width="7.879" height="4" rx="1" ry="1" fill="#e6edf7"></rect><path data-name="layer1" fill="#71c3f3" d="M8.004 16h1.998v22.007H8.004zm46 0h1.998v22.007h-1.998z"></path><path data-name="opacity" fill="#fff" opacity=".4" d="M37.448 16.006L15.47 38.007h13.084L50.53 16.006H37.448z"></path><path data-name="opacity" d="M10.659 61.475L20 54H10v6a1.988 1.988 0 0 0 .659 1.475zm34.002 0L54 54H44v6a1.989 1.989 0 0 0 .661 1.475z" fill="#000064" opacity=".15"></path></svg>