<svg xmlns="http://www.w3.org/2000/svg" viewBox="0 0 64 64"><path data-name="layer3" d="M49.079 27.7l-1.034 2.428a17.988 17.988 0 0 1-31.831.516L2 25.907v28L20 60l24-6.095 18 6v-28z" fill="#c8daf8"></path><path data-name="opacity" fill="#000064" opacity=".15" d="M43.999 25.953l.001 28 18.001 6.003v-28l-18.002-6.003zm-42 0v28l18.002 6.002v-28L1.999 25.953z"></path><circle data-name="layer2" cx="32.001" cy="21.997" r="18" fill="#ffdea5"></circle><path data-name="layer1" fill="#f27e7c" d="M23.602 30.398l4.201-12.599 12.596-4.201L36.2 26.197l-12.598 4.201z"></path><path data-name="opacity" d="M44.729 34.695a17.97 17.97 0 0 1-28.515-4.05L2 25.907v28L20 60l24.75-25.3z" fill="#000064" opacity=".15"></path><path data-name="opacity" fill="#000064" opacity=".15" d="M23.602 30.398L36.2 26.197 27.802 17.8l-4.2 12.598z"></path></svg>