<svg xmlns="http://www.w3.org/2000/svg" viewBox="0 0 64 64"><path data-name="layer2" fill="#78d1f4" d="M20 24h24v16H20z"></path><path data-name="layer1" d="M2 19a1 1 0 0 1-1-1V6a1 1 0 0 1 1-1h12a1 1 0 0 1 0 2H3v11a1 1 0 0 1-1 1z" fill="#7c89ad"></path><path data-name="layer1" d="M14 19a1 1 0 0 1-.707-.293l-12-12A1 1 0 1 1 2.71 5.293l12 12A1 1 0 0 1 14 19zm48 0a1 1 0 0 1-1-1V7H50a1 1 0 0 1 0-2h12a1 1 0 0 1 1 1v12a1 1 0 0 1-1 1z" fill="#7c89ad"></path><path data-name="layer1" d="M50 19a1 1 0 0 1-.707-1.707l12-12A1 1 0 1 1 62.7 6.707l-12 12A1 1 0 0 1 50 19zM14 59H2a1 1 0 0 1-1-1V46a1 1 0 0 1 2 0v11h11a1 1 0 0 1 0 2z" fill="#7c89ad"></path><path data-name="layer1" d="M2 59a1 1 0 0 1-.7-1.707l12-12a1 1 0 0 1 1.415 1.414l-12 12A1 1 0 0 1 2 59zm60 0H50a1 1 0 0 1 0-2h11V46a1 1 0 0 1 2 0v12a1 1 0 0 1-1 1z" fill="#7c89ad"></path><path data-name="layer1" d="M62 59a1 1 0 0 1-.707-.293l-12-12a1 1 0 0 1 1.415-1.414l12 12A1 1 0 0 1 62 59z" fill="#7c89ad"></path></svg>