<svg xmlns="http://www.w3.org/2000/svg" viewBox="0 0 64 64"><circle data-name="layer4" cx="32.198" cy="31.795" r="30" fill="#dcebf5"></circle><path data-name="layer3" d="M35.944 30.363l24.275-9.354a30.011 30.011 0 0 0-28-19.212v26a3.993 3.993 0 0 1 3.725 2.566z" fill="#92d5b5"></path><path data-name="layer2" d="M32.221 48.8a17 17 0 0 1-8.5-31.725 1 1 0 1 1 1 1.73 15 15 0 1 0 22.46 14.134 1 1 0 0 1 1.994.15A17.066 17.066 0 0 1 32.221 48.8z" fill="#7b8baf"></path><path data-name="layer2" d="M32.221 62.8a31 31 0 0 1-8.266-60.888 1 1 0 0 1 .533 1.928A29 29 0 1 0 61.221 31.8c0-.823-.034-1.648-.1-2.457a1 1 0 0 1 1.994-.165c.072.861.108 1.744.108 2.622a31.035 31.035 0 0 1-31.002 31z" fill="#7b8baf"></path><path data-name="opacity" d="M33.944 32.363a3.978 3.978 0 1 0 .276 1.435 3.993 3.993 0 0 0-.276-1.435z" fill="#000064" opacity=".15"></path><path data-name="layer1" d="M35.944 30.363a3.978 3.978 0 1 0 .276 1.436 3.993 3.993 0 0 0-.276-1.436z" fill="#ed5451"></path></svg>