<?xml version="1.0" encoding="utf-8"?>
<!-- Generator: Adobe Illustrator 25.2.0, SVG Export Plug-In . SVG Version: 6.00 Build 0)  -->
<svg version="1.1" id="图层_1" xmlns="http://www.w3.org/2000/svg" xmlns:xlink="http://www.w3.org/1999/xlink" x="0px" y="0px"
	 viewBox="0 0 64 64" style="enable-background:new 0 0 64 64;" xml:space="preserve">
<style type="text/css">
	.st0{fill:#F7C98A;}
	.st1{opacity:0.15;enable-background:new    ;}
	.st2{fill:#F27E7C;}
	.st3{opacity:0.15;fill:#C2EAFF;enable-background:new    ;}
	.st4{fill:#D35E5E;}
</style>
<path class="st0" d="M41.5,3C36.3,3,32,7.3,32,12.5V22h9.5c5.2,0,9.5-4.3,9.5-9.5S46.7,3,41.5,3z M22.5,3c5.2,0,9.5,4.3,9.5,9.5V22
	h-9.5c-5.2,0-9.5-4.3-9.5-9.5S17.3,3,22.5,3z"/>
<path class="st1" d="M22.5,3c5.2,0,9.5,4.3,9.5,9.5V22h-9.5c-5.2,0-9.5-4.3-9.5-9.5S17.3,3,22.5,3z"/>
<path class="st2" d="M24,22H4v12h20V22z"/>
<path class="st0" d="M24,22h16v12H24V22z"/>
<path class="st3" d="M24,22h16v12H24V22z"/>
<path class="st2" d="M40,22v12h20V22H40z"/>
<path class="st4" d="M8,34h16v28H8V34z"/>
<path class="st0" d="M24,34h16v28H24V34z"/>
<path class="st4" d="M40,34h16v28H40V34z"/>
<path class="st1" d="M8,34h48v4H8V34z"/>
</svg>
