<svg xmlns="http://www.w3.org/2000/svg" viewBox="0 0 64 64"><path data-name="layer1" d="M46 16.022c-6.844 0-10.687 4.3-13.8 9.241l-3.264 5.557C25.261 37.169 22.8 41 18 41c-6 0-10-3.764-10-9a9.881 9.881 0 0 1 10-10c2 0 4.913 1.27 7.286 4.245l3.649 4.574.468-.808c.906-1.571 1.816-3.19 2.8-4.748l.035-.06-2.159-2.7C26.586 18.127 22 16 18 16v.021A16.069 16.069 0 0 0 2 32c0 8.541 7 15 16 15s12.819-7.434 16.6-13.992C38.543 26.172 41 22.022 46 22.022c6 0 10 3.75 10 8.982A9.875 9.875 0 0 1 46 41c-2 0-4.99-1.279-7.353-4.226l-3.185 5.321A15.1 15.1 0 0 0 46 46.979V47a16.081 16.081 0 0 0 16-16c0-8.537-7-14.978-16-14.978z" fill="#bacae9"></path></svg>