<svg xmlns="http://www.w3.org/2000/svg" viewBox="0 0 64 64"><path data-name="layer2" d="M52 32a10.017 10.017 0 0 1 2 .2V11.908L36 2l-18 9.908L2 3v41.09L18 54l18-9.91 7.232 3.983A17.784 17.784 0 0 1 42 42a10 10 0 0 1 10-10z" fill="#c8daf8"></path><path data-name="layer1" d="M54 32.2A10 10 0 0 0 42 42a17.784 17.784 0 0 0 1.232 6.073C45.908 55.3 52 62 52 62s10-11 10-20a10 10 0 0 0-8-9.8zM52 45a3 3 0 1 1 3-3 3 3 0 0 1-3 3z" fill="#f27e7c"></path><path data-name="opacity" fill="#000064" opacity=".15" d="M2 3l-.002 41.09 16 9.91V11.907L2 3zm34-1v42.09l7.232 3.983A17.784 17.784 0 0 1 42 42a10 10 0 0 1 12-9.8V11.908z"></path><path data-name="opacity" d="M43.234 48.073A17.784 17.784 0 0 1 42 42a9.961 9.961 0 0 1 2.859-6.994L36 44.09z" fill="#000064" opacity=".15"></path><path data-name="opacity" d="M52 45a3 3 0 0 1 0-6v-7a10 10 0 0 0-10 10 17.784 17.784 0 0 0 1.232 6.073C45.908 55.3 52 62 52 62z" fill="#000064" opacity=".15"></path></svg>