<svg xmlns="http://www.w3.org/2000/svg" viewBox="0 0 64 64"><path data-name="layer5" fill="#cbe5ff" d="M58 56V16H6v40h17V45h18v11h17z"></path><path data-name="layer3" fill="#a7c5f2" d="M22.756 16H2v-6h21.063l-.307 6zm18.488 0H62v-6H40.938l.306 6z"></path><path data-name="layer4" fill="#7b8baf" d="M23 45h18v16H23z"></path><path data-name="opacity" fill="#000064" opacity=".15" d="M23 45v3h15v13h3V45H23z"></path><path data-name="layer3" fill="#a7c5f2" d="M11 21h6v6h-6zm36 0h6v6h-6zM11 33h6v6h-6zm0 12h6v6h-6zm36 0h6v6h-6zM23 33h6v6h-6zm12 0h6v6h-6zm12 0h6v6h-6zM29 21.542V27h-6v-6h4.636m8.727 0H41v6h-6v-5.458"></path><path data-name="opacity" fill="#000064" opacity=".15" d="M47 21v2h4v4h2v-6h-6zm-12 0v2h4v4h2v-6h-6zm12 26h4v4h2v-6h-6v2zM35 35h4v4h2v-6h-6v2zm12 0h4v4h2v-6h-6v2zM11 21v2h4v4h2v-6h-6zm0 26h4v4h2v-6h-6v2zm0-12h4v4h2v-6h-6v2zm12 0h4v4h2v-6h-6v2z"></path><path data-name="layer3" fill="#a7c5f2" d="M2 56h21v5H2zm39 0h21v5H41z"></path><path data-name="opacity" d="M20.014 10A9.985 9.985 0 0 0 27 25.949V27h2v-1.051A9.985 9.985 0 0 0 35.986 10z" fill="#000064" opacity=".15"></path><circle data-name="layer2" cx="32" cy="12" r="10" fill="#f26161"></circle><path data-name="layer1" fill="#fff" d="M37.5 10.5h-4v-4h-3v4h-4v3h4v4h3v-4h4v-3z"></path></svg>