<svg xmlns="http://www.w3.org/2000/svg" viewBox="0 0 64 64"><path data-name="layer2" d="M50.359 49.284c1.115.764 2.928 1.8 2.584 4.184C52.688 55.239 49.1 62 41.461 62s-17.006-6.02-25.227-14.241-14.24-17.59-14.24-25.225 6.762-11.227 8.531-11.482c2.387-.346 3.422 1.467 4.186 2.585s5.109 7.81 5.785 8.839a4.111 4.111 0 0 1-1.088 5.55c-2.467 2-6.578 4.463 2.76 13.8s11.8 5.226 13.8 2.759A4.109 4.109 0 0 1 41.52 43.5c1.027.675 7.722 5.021 8.839 5.784z" fill="#5edc89"></path><path data-name="layer1" d="M62 35.006a1 1 0 0 1-1-1 31.035 31.035 0 0 0-31-31 1 1 0 0 1 0-2 33.037 33.037 0 0 1 33 33 1 1 0 0 1-1 1z" fill="#7c89ad"></path><path data-name="layer1" d="M51.994 34.994a1 1 0 0 1-1-1A21.018 21.018 0 0 0 30 13a1 1 0 0 1 0-2 23.02 23.02 0 0 1 22.994 22.994 1 1 0 0 1-1 1zm-10.988.012a1 1 0 0 1-1-1A10.017 10.017 0 0 0 30 24a1 1 0 0 1 0-2 12.019 12.019 0 0 1 12.006 12.006 1 1 0 0 1-1 1z" fill="#7c89ad"></path></svg>