<svg xmlns="http://www.w3.org/2000/svg" viewBox="0 0 64 64"><path data-name="layer3" d="M10.556 37.4c6.061-1.153 5.943-3.29 5.944-4.49V31a12.22 12.22 0 0 1-4-8.591v-5.763C12.5 10.4 17.458 8 21.489 8a8.938 8.938 0 0 1 5.77 1.981 7.524 7.524 0 0 1 3.24 6.04c0 4 0 12-4 14.979v2c0 .962-.128 2.512 2.994 3.624A40.741 40.741 0 0 0 35.5 38v.816c0 1.467.1 4.1-7.366 5.146-3.982.556-6.114 2.06-7.267 4.061H3.5V44s0-5.261 7.056-6.6z" fill="#a5d0ec"></path><path data-name="layer2" d="M10.556 37.4c6.061-1.153 5.943-3.29 5.944-4.49V31a12.22 12.22 0 0 1-4-8.591v-5.763C12.5 10.4 17.458 8 21.489 8a8.938 8.938 0 0 1 5.77 1.981 7.524 7.524 0 0 1 3.24 6.04c0 4 0 12-4 14.979v2c0 .962-.128 2.512 2.994 3.624A40.741 40.741 0 0 0 35.5 38v.816c0 1.467.1 4.1-7.366 5.146-3.982.556-6.114 2.06-7.267 4.061H3.5V44s0-5.261 7.056-6.6z" fill="#a7c5f2"></path><path data-name="opacity" d="M26.5 33v-2c4-2.978 4-10.978 4-14.978a7 7 0 0 0-.74-3.148L14.312 28.321A15.144 15.144 0 0 0 16.5 31v1.907c0 1.2.116 3.337-5.944 4.49C3.5 38.739 3.5 44 3.5 44v4.022h17.368c1.153-2 3.285-3.505 7.267-4.061 7.465-1.043 7.365-3.68 7.365-5.147V38a40.741 40.741 0 0 1-6-1.376c-3.127-1.113-3-2.663-3-3.624z" fill="#000064" opacity=".15"></path><path data-name="layer1" d="M25.131 43.949c7.469-1.042 7.363-3.668 7.363-5.135v-2.332c-2.707-2.386-4-6.354-4-10.851v-7.044c0-7.631 5.071-10.566 10-10.566s10 2.935 10 10.566v7.044c0 4.485-1.288 8.63-3.983 11.016V39c0 1.467-.112 3.853 7.358 4.949 8.63 1.266 8.631 8.072 8.631 8.072V56H16.511v-3.98s-.011-6.866 8.62-8.071z" fill="#c3d6f9"></path></svg>