<?xml version="1.0" encoding="utf-8"?>
<!-- Generator: Adobe Illustrator 25.2.0, SVG Export Plug-In . SVG Version: 6.00 Build 0)  -->
<svg version="1.1" id="图层_1" xmlns="http://www.w3.org/2000/svg" xmlns:xlink="http://www.w3.org/1999/xlink" x="0px" y="0px"
	 viewBox="0 0 64 64" style="enable-background:new 0 0 64 64;" xml:space="preserve">
<style type="text/css">
	.st0{fill:#CCFBE6;}
	.st1{fill:#2EFCF2;}
</style>
<path class="st0" d="M52,46H38.1c-1.9,2.3-4,4.4-6.1,6.4c-2.2-2-4.2-4.1-6.1-6.4H12L4,62h56L52,46z"/>
<path class="st1" d="M32,2c-10,0-18.1,8.1-18.1,18.1c0,9.9,6.7,19.7,11.9,25.9c1.9,2.3,4,4.4,6.1,6.4c2.2-2,4.2-4.1,6.1-6.4
	c5.2-6.1,11.9-15.9,11.9-25.9C50.1,10.1,42,2,32,2z M32,14c3.3,0,6,2.7,6,6s-2.7,6-6,6s-6-2.7-6-6c0,0,0,0,0,0
	C26,16.7,28.7,14,32,14z"/>
</svg>
