<svg xmlns="http://www.w3.org/2000/svg" viewBox="0 0 64 64"><path data-name="layer3" d="M43 47.979a3 3 0 0 0 3-3V42h12V1.98H24v46zm-25-3a3 3 0 0 0 3 3h3v-34H6V42h12z" fill="#e1f0ff"></path><path data-name="opacity" d="M18 44.979a3 3 0 0 0 3 3h3v-34H6V42h12z" fill="#000064" opacity=".1"></path><path data-name="layer2" d="M50 10.978H38a1 1 0 0 1 0-2h12a1 1 0 0 1 0 2zm0 8.002H32a1 1 0 1 1 0-2h18a1 1 0 0 1 0 2zm0 8.002H32a1 1 0 0 1 0-2h18a1 1 0 0 1 0 2zm0 8.001h-7.994a1 1 0 0 1 0-2H50a1 1 0 0 1 0 2z" fill="#a7c5f2"></path><path data-name="layer1" d="M18 42v2.978a3 3 0 0 0 3 3h22a3 3 0 0 0 3-3V42h16v20H2V42z" fill="#71c3f3"></path></svg>